<svg width="263" height="69" viewBox="0 0 263 69" fill="none" xmlns="http://www.w3.org/2000/svg">
<g filter="url(#filter0_d)">
<path d="M1.8253 17.2281L1.54644 11.3882C1.55869 10.4039 1.54839 9.349 1.51553 8.2235C1.36306 5.40888 1.5701 3.84103 2.13664 3.51993C2.65573 3.24512 3.01106 2.94484 3.20263 2.61907C3.44107 2.29389 3.67747 2.13276 3.91183 2.13568C4.19305 2.13918 4.59146 2.14414 5.10705 2.15056C5.67009 2.11069 6.25598 2.11799 6.86472 2.17245C8.31657 2.28428 9.2748 2.50717 9.73943 2.84111C10.2509 3.17563 10.8108 3.39355 11.4189 3.49488C12.0271 3.59621 12.6355 3.67411 13.2443 3.72857C13.9005 3.73674 14.5098 3.74433 15.0723 3.75133C15.6353 3.71146 16.1277 3.69415 16.5496 3.69941C17.0183 3.70524 17.3224 3.75591 17.4618 3.8514C18.0214 4.09276 18.4889 4.19234 18.8645 4.15014C19.2869 4.10852 19.683 4.30097 20.0527 4.72748C20.423 5.10712 20.677 5.415 20.8147 5.6511C20.953 5.84034 21.3965 5.9865 22.1453 6.08958C22.9409 6.19324 23.5959 6.29516 24.1104 6.39532C24.6254 6.44861 25.1383 6.66596 25.6492 7.04735C26.1601 7.42874 26.5791 7.66835 26.906 7.76618C27.2329 7.864 27.5807 8.17305 27.9492 8.6933C28.3646 9.21414 28.6412 9.59261 28.7789 9.82872C28.9166 10.0648 29.0054 10.4644 29.0452 11.0274C29.0758 12.3404 29.3919 13.3054 29.9936 13.9223C30.5954 14.5392 30.9162 15.1292 30.9561 15.6922C31.0428 16.2558 31.1049 16.9129 31.1425 17.6634C31.18 18.414 31.2386 19.3523 31.3184 20.4784C31.4456 21.5581 31.196 22.7739 30.5698 24.1256C29.991 25.431 29.3937 26.3377 28.778 26.8457C28.2091 27.3542 27.7325 27.9812 27.3482 28.7264C26.9644 29.4248 26.673 30.2416 26.4738 31.1767C26.3221 32.0655 25.8186 32.9733 24.9633 33.9003C24.4395 34.55 24.0127 34.9432 23.6828 35.0797C23.3999 35.2168 23.1166 35.3774 22.833 35.5614C22.5501 35.6985 22.2193 35.9053 21.8409 36.1819C21.463 36.4116 21.0385 36.6172 20.5674 36.7989C19.3887 37.3467 18.3795 37.4514 17.5399 37.1128C17.0214 37.3407 16.5037 37.4983 15.987 37.5857C15.5177 37.6267 15.0244 37.7143 14.507 37.8485C13.4243 38.21 12.8071 38.8352 12.6554 39.724C12.5506 40.6134 12.6329 41.5286 12.9025 42.4695C13.2189 43.411 13.3965 44.2102 13.4352 44.8669C13.6433 46.9791 13.1049 48.8006 11.8201 50.3316C11.0117 51.2591 10.4835 52.2605 10.2357 53.3356C9.98854 54.3638 9.55794 55.0616 8.94395 55.429C7.9011 56.3536 6.91943 56.1304 5.99893 54.7595C5.86007 54.6171 5.55774 54.4258 5.09194 54.1857C4.44041 53.8025 4.02586 53.2114 3.8483 52.4122C3.71819 51.5668 3.65839 50.7222 3.6689 49.8785C3.6794 49.0349 3.61902 48.2372 3.48774 47.4855C3.35647 46.7338 3.20234 45.9349 3.02536 45.0889C2.63212 42.787 2.44075 41.2141 2.45126 40.3705C2.46176 39.5268 2.44912 38.6594 2.41334 37.7682C2.42443 36.8777 2.55153 36.0823 2.79465 35.3822C3.08463 34.6826 3.20764 34.2153 3.16369 33.9804C3.11974 33.7455 3.16982 33.4882 3.31394 33.2088C3.45863 32.8824 3.62735 32.5095 3.82009 32.09C4.01341 31.6236 4.15987 31.1566 4.25944 30.6891C4.45919 29.7071 4.18846 28.8599 3.44728 28.1475C2.61352 27.3402 2.20218 26.4913 2.21327 25.6007L2.21852 25.1789C2.37898 23.587 2.41584 22.5093 2.3291 21.9456C1.97398 20.3473 1.80604 18.7748 1.8253 17.2281ZM13.0342 20.6023C13.1256 20.7909 13.1924 21.073 13.2346 21.4486C13.3242 21.7778 13.3884 22.2709 13.4271 22.9276C13.5127 23.585 13.5039 24.2881 13.4008 25.0369C13.3452 25.7393 13.2902 26.395 13.2357 27.0037C13.1227 28.5493 13.2994 29.4187 13.7658 29.6121C14.2784 29.8528 15.13 29.2306 16.3205 27.7453C17.6053 26.2143 18.6832 24.3526 19.5543 22.1601C19.9908 20.9936 20.025 20.1268 19.657 19.5596C18.8719 18.6123 18.5543 17.7645 18.7042 17.0163C18.7517 16.97 18.7532 16.8529 18.7086 16.6648C18.6161 16.5699 18.5003 16.4512 18.3615 16.3089C18.2232 16.1196 18.0143 15.953 17.7348 15.8089C16.662 15.3736 15.6777 15.3613 14.7819 15.7721C13.9336 16.1365 13.3641 16.692 13.0736 17.4384C12.8299 18.1855 12.7054 18.7699 12.7001 19.1917C12.7423 19.5673 12.7857 19.8491 12.8302 20.0372C12.8754 20.1784 12.9433 20.3667 13.0342 20.6023ZM45.5167 13.2718L44.9664 29.2271C44.8783 36.3047 45.8209 39.6682 47.7941 39.3178C49.485 39.0576 50.2954 36.0909 50.2254 30.4177C50.2465 28.7303 50.3771 27.6537 50.6173 27.1879C50.9049 26.6758 51.0976 26.2563 51.1955 25.9294C51.4415 24.9949 51.5038 23.7534 51.3825 22.2049C51.301 21.2194 51.1553 19.7409 50.9455 17.7694C50.7357 15.7979 50.5498 13.7798 50.388 11.7151C50.2268 9.60357 50.1567 7.70412 50.1777 6.01675C50.1987 4.32938 50.3759 3.27681 50.7093 2.85906C51.0895 2.44188 51.5377 2.21307 52.0538 2.17262C52.6175 2.08588 53.1799 2.09289 53.7412 2.19363C54.35 2.24809 54.9112 2.34884 55.4251 2.49587C55.9858 2.64349 56.4302 2.71934 56.7583 2.72343C57.1333 2.7281 57.5557 2.68648 58.0256 2.59857C58.5429 2.46438 59.0362 2.37677 59.5055 2.33573C60.0223 2.24841 60.4916 2.20737 60.9134 2.21263C61.3821 2.21846 61.8019 2.38777 62.1728 2.72054C62.5437 3.0533 62.8381 3.87735 63.0562 5.19266C63.321 6.50856 63.4893 8.05765 63.5608 9.83993C63.6793 11.6228 63.7256 13.5454 63.7 15.6077C63.6749 17.6232 63.6275 19.5446 63.5579 21.372C63.3202 25.4006 63.1023 27.8356 62.9044 28.677C62.7532 29.5189 62.5582 30.1259 62.3191 30.4979C62.0801 30.87 61.8414 31.2186 61.6029 31.5438C61.126 32.1942 61.0441 33.1307 61.357 34.3535C61.6699 35.5762 61.916 36.5168 62.0953 37.1754C62.4089 38.3512 62.4192 39.4061 62.1263 40.3401C61.8334 41.274 61.7282 42.1868 61.8109 43.0785C62.0155 45.4719 61.7129 47.1792 60.9033 48.2004C60.5219 48.7114 59.9299 49.1962 59.1272 49.655C57.5225 50.5257 56.3373 51.5892 55.5716 52.8453C55.1873 53.5906 54.7365 54.0304 54.2191 54.1645C53.9367 54.2548 53.5146 54.273 52.9527 54.2191C52.3914 54.1184 51.783 54.0405 51.1274 53.9854C50.4723 53.8835 49.8405 53.8053 49.2317 53.7509C48.6236 53.6495 48.2017 53.6443 47.9662 53.7351C47.7312 53.779 47.5186 53.917 47.3282 54.1491C47.1383 54.3342 46.9248 54.5425 46.6875 54.7739C45.4062 56.0237 44.0956 55.8668 42.7556 54.3031C42.4784 53.9715 42.201 53.6633 41.9233 53.3786C41.693 53.0476 41.4616 52.8103 41.229 52.6667C40.9969 52.4763 40.6709 52.3082 40.2508 52.1623C39.8782 51.9702 39.4595 51.7071 38.9949 51.3732C36.9946 50.1295 35.7536 48.1451 35.2719 45.4201C35.007 44.1042 34.7936 42.4139 34.6318 40.3493C34.4706 38.2377 34.3232 36.8999 34.1896 36.3356C34.1028 35.772 33.8292 35.1592 33.3687 34.4972C32.9087 33.7882 32.6119 33.1517 32.4783 32.5875C32.3453 31.9764 32.3297 31.3433 32.4316 30.6883C32.5335 30.0333 32.6601 29.2848 32.8112 28.4429C33.2142 26.1977 33.3324 24.2303 33.166 22.5406C32.9995 20.8509 32.969 19.5379 33.0744 18.6016C33.2267 17.666 33.2574 17.0804 33.1666 16.8448C33.0763 16.5624 32.9155 16.3026 32.684 16.0653C32.4995 15.8286 32.4587 15.3359 32.5618 14.5871C32.6649 13.8384 32.7208 13.1124 32.7296 12.4094C32.7383 11.7063 32.7474 10.9798 32.7567 10.2298C32.937 7.04434 33.4531 5.12874 34.305 4.48305C35.0144 3.97622 35.7445 3.70404 36.495 3.66651C37.6673 3.63423 38.5371 3.4341 39.1042 3.06614C39.7182 2.69875 40.2142 2.40022 40.592 2.17053C42.952 0.887314 44.3933 1.84284 44.9161 5.03709C45.2665 7.01036 45.4667 9.75525 45.5167 13.2718ZM73.5285 3.56512C75.8837 2.65688 77.1504 2.57889 77.3286 3.33117C78.5039 3.06453 79.3666 3.42687 79.9168 4.41817C80.1002 4.7486 80.4433 5.43262 80.946 6.47021C81.4956 7.50838 82.0678 8.61715 82.6625 9.79652C83.3041 10.9765 83.8998 12.0855 84.4494 13.1237C84.999 14.1619 85.3652 14.8696 85.548 15.2469C85.7314 15.5774 85.9634 15.7678 86.2441 15.8181C86.5247 15.8685 86.8068 15.8017 87.0904 15.6177C87.7056 15.1566 87.8784 14.4556 87.6088 13.5147C87.3861 12.5743 87.278 11.8463 87.2844 11.3308C87.3383 10.7689 87.415 10.2542 87.5146 9.78663C87.8122 8.47773 87.8722 7.42371 87.6946 6.62456C87.517 5.82541 87.4326 5.0743 87.4414 4.37123C87.4589 2.96509 88.616 2.27632 90.9127 2.30492C91.3814 2.31076 91.9202 2.34091 92.5289 2.39536C93.1382 2.40295 94.0528 2.36746 95.2726 2.28889C96.493 2.16346 97.5435 2.50469 98.4242 3.31259C99.3523 4.07421 99.64 5.43727 99.2874 7.40178C98.8323 10.0682 98.6223 11.8704 98.6575 12.8084C98.6933 13.6996 98.7062 14.5435 98.6963 15.3403C98.6858 16.184 98.5297 17.4244 98.2281 19.0614C97.6763 21.961 97.51 24.0216 97.7292 25.2431C97.9032 26.3235 97.9871 27.1215 97.9806 27.6371L97.9666 28.762C97.9649 28.9026 98.008 29.2079 98.0959 29.6777C98.1838 30.1476 98.1542 30.6395 98.0072 31.1533C97.8607 31.6203 97.8309 32.1356 97.9176 32.6992C98.0043 33.2628 97.879 33.9175 97.5416 34.6634C97.2047 35.3624 97.0307 36.1572 97.0196 37.0477C97.056 37.892 96.9995 38.6648 96.8501 39.3661C96.7008 40.0674 96.7609 40.8885 97.0304 41.8295C97.4342 43.2877 97.0508 45.8378 95.8804 49.4798C95.6818 50.368 95.3698 50.9501 94.9445 51.2261C94.5666 51.4558 94.283 51.6398 94.0938 51.7781C93.9046 51.9163 93.7602 52.2192 93.6606 52.6868C93.4146 53.6213 92.9172 54.037 92.1684 53.9339C91.1858 53.7811 90.4013 52.7868 89.8147 50.9513C89.0025 48.4097 88.3413 46.9248 87.831 46.4965C87.3206 46.0683 86.9295 45.4774 86.6576 44.724C86.4326 43.9711 86.2313 43.1951 86.0538 42.396C85.7033 40.4227 85.3423 39.2931 84.9709 39.0072C84.6 38.6744 84.3029 38.0613 84.0796 37.1679C83.8564 36.2744 83.6299 35.6387 83.4002 35.2608C83.1705 34.8829 82.9414 34.4582 82.7129 33.9865C82.5313 33.5155 82.3262 33.0441 82.0976 32.5725C81.5029 31.3931 80.9234 30.8703 80.3592 31.0039C80.03 31.0935 79.7904 31.5124 79.6404 32.2606C79.5379 32.9625 79.4334 33.8285 79.3268 34.8585C79.0082 37.8548 78.5126 40.005 77.8401 41.3092C78.2468 42.5331 78.5374 43.6618 78.7121 44.6954C78.9342 45.6826 78.8724 46.8772 78.5268 48.2793C78.2286 49.635 77.9806 50.7336 77.7826 51.5749C77.5846 52.4163 77.3643 53.1636 77.1218 53.8169C76.9267 54.4239 76.6865 54.8897 76.4012 55.2143C76.1159 55.5389 75.7629 55.6517 75.3422 55.5527C74.921 55.5005 74.6412 55.3799 74.5029 55.1906C74.3646 55.0014 74.2264 54.8122 74.0881 54.6229C73.7676 54.0095 73.2107 53.5572 72.4174 53.2661C71.624 52.9749 71.066 52.6164 70.7431 52.1905C70.4203 51.7645 70.2155 51.2698 70.1287 50.7061C70.042 50.1425 69.9793 49.5323 69.9406 48.8755C69.9488 48.2193 69.7935 47.5142 69.4747 46.7602C69.2034 45.9599 69.0709 45.3019 69.0774 44.7863C69.0838 44.2707 69.1362 43.8261 69.2346 43.4522C69.3336 43.0316 69.4323 42.6343 69.5307 42.2605C69.6297 41.8399 69.5439 41.2059 69.2731 40.3587C68.7323 38.6175 68.9141 37.19 69.8187 36.0761C70.4866 35.1469 70.7777 34.3536 70.6921 33.6962C70.4278 32.3334 69.8999 31.4362 69.1084 31.0044C68.7363 30.7654 68.5523 30.4818 68.5564 30.1537C68.5652 29.4506 68.4544 28.9336 68.2241 28.6026C68.0413 28.2253 68.0471 27.7566 68.2416 27.1964C68.4361 26.6363 68.4185 26.1673 68.1888 25.7894C68.1894 25.7425 68.125 25.273 67.9954 24.3807C67.9134 23.4421 67.8108 22.2688 67.6877 20.8609C67.612 19.4067 67.5141 17.8585 67.3939 16.2163C67.2743 14.5272 67.2007 12.9089 67.1731 11.3616C67.03 7.79703 67.0794 5.71155 67.3213 5.10514C67.6101 4.49931 68.0141 4.059 68.5332 3.78419C69.0991 3.50996 69.6874 3.32978 70.2979 3.24362C71.612 3.11935 72.6889 3.22652 73.5285 3.56512ZM126.179 25.5271C125.218 27.4371 124.544 28.8351 124.158 29.721C123.819 30.6075 123.646 31.2851 123.64 31.7538C123.635 32.1756 123.768 32.7867 124.04 33.587C124.358 34.341 124.746 35.2131 125.202 36.2033C125.659 37.1465 126.162 38.2075 126.71 39.3863C127.304 40.5657 127.806 41.6736 128.215 42.71C128.625 43.6996 128.896 44.4765 129.03 45.0407C129.211 45.5586 129.345 46.0759 129.433 46.5927C129.515 47.4844 129.456 48.4915 129.254 49.6141C129.1 50.7373 129.042 51.6507 129.08 52.3543C129.165 53.0117 129.181 53.6213 129.127 54.1832C129.12 54.7457 129.021 55.2132 128.828 55.5858C128.637 55.9116 128.072 56.0921 127.134 56.1273C126.242 56.2099 125.402 55.8948 124.614 55.1818C123.873 54.4694 123.227 53.641 122.676 52.6965C122.173 51.7058 121.74 50.7394 121.377 49.7973C121.06 48.8558 120.624 48.0769 120.07 47.4605C119.515 46.8442 119.034 45.9475 118.626 44.7705C118.266 43.594 117.952 42.465 117.684 41.3835C117.416 40.3019 117.123 39.3607 116.805 38.5598C116.487 37.7589 116.024 37.3078 115.416 37.2065C114.854 37.1057 114.478 37.2417 114.285 37.6143C114.14 37.9875 114.063 38.5022 114.055 39.1584C114.095 39.7683 114.156 40.4723 114.24 41.2703C114.324 42.0214 114.361 42.8657 114.349 43.8031C114.385 44.6942 114.327 45.5373 114.177 46.3324C114.073 47.128 113.689 47.8967 113.023 48.6385C112.405 49.334 111.974 50.0552 111.73 50.8023C111.534 51.5499 111.361 52.2743 111.211 52.9757C111.062 53.677 110.867 54.284 110.626 54.7966C110.385 55.3093 109.984 55.5621 109.421 55.5551C108.296 55.588 107.272 54.9424 106.351 53.6183C105.43 52.2942 104.912 50.5767 104.798 48.4658C104.673 47.2454 104.331 46.4442 103.773 46.0622C103.262 45.7277 103.114 44.4367 103.329 42.1892C103.384 41.5804 103.484 41.0426 103.631 40.5756C103.93 39.1261 103.932 37.0635 103.637 34.3877C103.39 31.6657 103.222 30.0697 103.134 29.5998C103.047 29.0831 102.937 28.4957 102.805 27.8378C102.72 27.1335 102.635 26.4059 102.551 25.6548C102.514 24.8574 102.5 24.0603 102.51 23.2635C102.521 22.4198 102.625 21.5538 102.824 20.6656C103.07 19.7311 103.197 18.9592 103.204 18.3498C103.259 17.7411 103.265 17.2021 103.224 16.7328C103.009 15.23 102.93 14.0336 102.988 13.1436C103.093 12.2074 103.082 11.2228 102.954 10.1898C102.826 9.15692 102.745 8.14802 102.711 7.16314C102.676 6.17825 102.757 5.28857 102.955 4.4941C103.2 3.65333 103.629 3.04925 104.243 2.68187C104.904 2.31507 105.468 2.18146 105.936 2.28104C106.404 2.33375 106.895 2.43362 107.409 2.58065C108.95 3.02176 110.026 3.19923 110.637 3.11308C114.21 2.26688 115.611 4.55794 114.84 9.98627C114.689 10.8751 114.538 11.6701 114.389 12.3715C114.04 14.0547 113.93 15.3191 114.06 16.1645C114.147 16.7282 114.186 17.3381 114.178 17.9943C114.217 18.651 114.256 19.261 114.296 19.824C114.373 21.1376 114.67 21.7976 115.186 21.804C115.982 21.8139 117.007 20.4672 118.26 17.7638C118.548 17.158 118.742 16.6682 118.84 16.2944C118.986 15.9212 119.155 15.4779 119.349 14.9647C119.59 14.452 119.854 13.9396 120.142 13.4275C120.907 12.1714 121.714 11.3845 122.562 11.0669C121.969 9.74688 121.866 8.62051 122.252 7.68775C122.687 6.70871 123.024 5.98629 123.264 5.52049C123.504 5.0547 123.767 4.68294 124.051 4.40521C124.573 3.89605 125.325 3.78821 126.306 4.08169C127.333 4.37576 128.223 4.41028 128.976 4.18527C129.729 3.96025 130.459 3.73494 131.165 3.50934C131.918 3.23745 132.647 3.05901 133.351 2.97402C134.056 2.84216 134.64 2.99007 135.104 3.41775C135.614 3.84601 135.912 4.34196 135.999 4.90558C136.133 5.42292 136.126 5.98537 135.978 6.59295C135.681 7.85497 134.963 9.08831 133.823 10.293C133.134 12.8627 132.031 14.8882 130.512 16.3694C130.297 18.57 129.571 20.4127 128.334 21.8974C127.859 22.4071 127.14 23.617 126.179 25.5271ZM156.489 6.28582C157.848 6.39649 159.057 7.11474 160.119 8.44056C160.303 8.72412 160.487 9.00769 160.671 9.29125C160.856 9.52794 160.993 9.81092 161.082 10.1402C161.355 10.8468 161.436 11.8557 161.326 13.1669C161.216 14.4781 161.273 15.557 161.497 16.4036C161.721 17.2034 161.946 17.9797 162.171 18.7325C162.576 20.0502 162.297 21.8046 161.332 23.9959C160.604 26.0026 159.722 27.1871 158.686 27.5492L157.415 27.9553C156.191 28.3619 155.134 28.5129 154.245 28.408C153.403 28.2569 152.82 27.9918 152.497 27.6128C151.575 26.3824 151.358 24.9734 151.847 23.3856C151.944 23.0587 151.951 22.5431 151.866 21.8388C151.781 21.1346 151.388 20.6844 150.687 20.4881C150.313 20.3897 150.058 20.2224 149.92 19.9863C149.829 19.7508 149.738 19.5622 149.646 19.4204C149.601 19.2323 149.532 19.1143 149.439 19.0662C149.393 18.9719 149.181 19.063 148.803 19.3396C148.424 19.6161 148.211 19.7775 148.164 19.8238C148.117 19.8232 147.954 19.7743 147.674 19.6771C147.44 19.5804 147.206 19.6009 146.97 19.7386C146.734 19.8763 146.496 20.1312 146.257 20.5033C145.395 21.9458 145.202 24.3107 145.676 27.5981C145.852 28.5848 146.028 29.5011 146.205 30.3471C146.553 32.461 146.7 33.8692 146.644 34.5717C146.636 35.2747 146.486 36.0229 146.194 36.8163C145.951 37.5633 145.731 38.3106 145.534 39.0582C144.947 40.9729 144.997 42.6143 145.683 43.9823C146.507 45.6333 147.033 46.6243 147.264 46.9553C147.68 47.3824 148.193 47.5763 148.803 47.5371C149.414 47.4509 149.886 47.1521 150.221 46.6406C150.556 46.0822 150.868 45.5001 151.157 44.8943C151.446 44.2416 151.758 43.6361 152.094 43.0777C152.429 42.5193 152.808 42.1959 153.231 42.1074C153.701 42.0195 154.286 42.0268 154.988 42.1293C155.691 42.1849 156.159 42.2142 156.394 42.2171C156.675 42.2206 157.001 42.3887 157.372 42.7215C157.743 43.0074 157.922 43.6894 157.909 44.7674C157.943 45.7992 157.979 46.6434 158.018 47.3002C158.057 47.9101 157.886 48.4705 157.505 48.9815C157.124 49.4455 156.861 49.8876 156.715 50.3077C156.616 50.6815 156.541 51.0556 156.49 51.43C156.431 52.4137 156.234 53.1378 155.9 53.6025C155.613 54.0677 155.327 54.4626 155.042 54.7872C154.804 55.0655 154.122 55.1976 152.998 55.1836C151.919 55.1702 150.929 55.6735 150.025 56.6936C149.122 57.7137 148.273 58.1485 147.478 57.9979C146.682 57.8943 146.125 57.4185 145.808 56.5708C145.489 55.8168 144.768 55.4093 143.643 55.3484C143.316 55.2975 143.012 55.2234 142.732 55.1261C142.452 54.982 142.125 54.8842 141.751 54.8326C141.377 54.7342 141.004 54.5655 140.632 54.3265C139.701 53.7992 138.938 52.9693 138.343 51.8368C137.977 51.1291 137.609 50.5385 137.24 50.0652C136.917 49.5924 136.642 49.1436 136.413 48.7188C135.815 47.7738 135.592 46.8803 135.743 46.0384C136.052 43.7921 135.766 42.3118 134.884 41.5977C134.373 41.2631 134.118 41.0021 134.12 40.8147C134.123 40.6272 134.034 40.2276 133.854 39.6159C133.583 38.7687 133.595 37.7844 133.891 36.663C134.233 35.5422 134.361 34.6297 134.276 33.9254C134.192 33.1743 134.084 32.3995 133.954 31.6009C133.698 29.5351 133.692 28.1755 133.934 27.5222C134.177 26.869 134.235 25.9321 134.11 24.7117C134.031 23.4919 133.997 22.507 134.006 21.7571C134.016 20.9603 133.958 19.9282 133.834 18.6609C133.756 17.3942 133.773 16.035 133.884 14.5831C134.258 10.9312 135.531 8.43909 137.704 7.10667C140.962 5.22522 143.036 4.33691 143.926 4.44174C144.207 4.44524 144.534 4.4962 144.908 4.59461C145.329 4.64673 145.728 4.62826 146.104 4.53919C146.48 4.45011 146.81 4.31359 147.094 4.1296C147.377 3.94562 147.661 3.7382 147.945 3.50734C149.083 2.49018 150.092 2.38555 150.973 3.19346C151.804 4.18826 152.452 4.85263 152.917 5.18657C153.706 5.80582 154.897 6.17224 156.489 6.28582ZM170.512 7.58552C171.033 7.12323 171.484 6.63662 171.866 6.12571C172.248 5.56792 172.746 5.05846 173.362 4.59734C175.019 3.2585 176.664 2.88052 178.298 3.4634C180.304 4.23844 182.15 4.73021 183.835 4.93871C185.52 5.1472 186.733 5.58422 187.475 6.24976C188.263 6.91588 188.934 7.62742 189.487 8.38436C190.825 10.1824 191.621 12.1378 191.876 14.2505C191.913 15.0479 192.046 15.6121 192.276 15.9431C192.873 16.9819 193.043 18.3669 192.787 20.0982C192.578 21.8301 192.493 23.0479 192.531 23.7516C192.616 24.4089 192.727 24.9025 192.864 25.2324C193.047 25.5628 193.207 25.893 193.344 26.2228C193.708 27.118 193.884 28.0109 193.873 28.9015C193.859 30.0264 193.47 31.1467 192.706 32.2622C192.373 32.68 192.245 33.4988 192.324 34.7186C192.402 35.9384 192.458 37.1579 192.489 38.3772C192.498 41.4244 192.31 43.3207 191.926 44.0659C191.542 44.7643 191.256 45.1827 191.067 45.321C190.924 45.4598 190.782 45.5752 190.641 45.6672C189.933 45.9866 189.288 46.963 188.705 48.5965C188.17 50.1837 187.451 51.4873 186.547 52.5074C185.644 53.4806 184.697 54.2892 183.704 54.9331C182.759 55.5308 182.004 55.9902 181.437 56.3113C180.917 56.6798 180.537 57.0267 180.299 57.3519C180.06 57.6771 179.822 58.0022 179.584 58.3274C178.965 59.0698 178.187 59.4351 177.249 59.4234C175.656 59.4036 174.489 59.014 173.748 58.2547C173.425 57.8288 173.081 57.2151 172.716 56.4136C172.029 55.1393 171.104 54.0965 169.942 53.2851C168.641 52.3782 167.861 51.0324 167.602 49.2478C167.469 48.6368 167.43 48.0268 167.484 47.4181C167.585 46.8099 167.572 46.0363 167.443 45.0971C167.361 44.1585 167.184 43.3125 166.912 42.559C166.64 41.8056 166.485 41.1005 166.446 40.4437C166.236 38.4722 165.593 37.4094 164.517 37.2554C163.721 37.1517 163.267 35.9506 163.155 33.6522C163.123 32.4798 163.183 31.3789 163.337 30.3495C163.491 29.2732 163.69 28.3616 163.934 27.6145C164.325 26.2599 164.462 24.6912 164.344 22.9083C164.226 21.0786 164.246 19.4615 164.404 18.0572C164.671 15.4353 165.26 13.3096 166.171 11.6802C166.602 10.9824 167.22 10.2869 168.025 9.59378C168.878 8.90122 169.707 8.2318 170.512 7.58552ZM174.691 27.7485C174.823 28.4064 175.051 28.9484 175.373 29.3743C175.744 29.7539 175.994 30.3665 176.124 31.2119C176.301 32.0579 176.36 32.9962 176.3 34.0268C176.241 35.0105 176.205 35.9711 176.194 36.9085C176.183 37.7991 176.219 38.6199 176.304 39.371C176.389 40.0753 176.521 40.7332 176.701 41.3449C177.199 42.8043 177.916 43.5399 178.853 43.5516C180.306 43.5696 181.349 40.7699 181.982 35.1524C182.188 33.6079 182.307 31.6405 182.336 29.2501C182.367 26.8128 182.018 24.7223 181.289 22.9787C180.562 21.1883 179.659 20.2863 178.581 20.2729C177.55 20.2601 176.598 21.3967 175.726 23.6829C174.95 25.7359 174.605 27.0911 174.691 27.7485ZM215.368 6.10487L217.619 5.99227C219.213 6.01211 220.334 6.28391 220.984 6.80767C221.681 7.33201 222.191 7.80715 222.513 8.23307C222.883 8.65958 223.206 9.10895 223.481 9.58116C223.757 10.0065 224.127 10.4565 224.589 10.931C225.099 11.4061 225.35 11.9718 225.342 12.628C225.334 13.2373 225.492 13.7315 225.816 14.1106C226.186 14.4902 226.366 15.1019 226.355 15.9456C226.345 16.7893 226.311 17.6092 226.254 18.4054C226.245 19.1554 226.167 19.7873 226.02 20.3011C225.873 20.7681 225.797 21.2593 225.79 21.7749C225.785 22.2436 225.873 22.6901 226.055 23.1143C226.285 23.4922 226.296 24.4533 226.089 25.9977C225.93 27.4959 225.653 29.016 225.259 30.5581C224.912 32.1007 224.45 33.431 223.873 34.5489C222.722 36.6441 220.874 38.2853 218.327 39.4724C218.555 40.0378 218.805 40.6738 219.077 41.3804C219.397 42.0406 219.693 42.7241 219.966 43.4306C220.553 45.1725 220.842 46.4418 220.832 47.2386C220.823 47.9885 220.839 48.5513 220.882 48.9268C220.971 49.2561 221.062 49.5151 221.153 49.7037C221.245 49.8924 221.36 50.0345 221.5 50.1299C221.686 50.226 221.941 50.4167 222.266 50.702C222.591 50.9405 222.844 51.3655 223.024 51.9772C223.203 52.5889 223.289 53.2228 223.281 53.879C223.262 55.3789 223.063 56.314 222.684 56.6843C222.351 57.0083 221.974 57.2145 221.551 57.303C221.174 57.439 220.775 57.5277 220.352 57.5694C219.272 57.6965 218.594 57.5475 218.318 57.1221C217.948 56.7425 217.742 56.3649 217.7 55.9893C217.705 55.5675 217.639 55.2151 217.502 54.9321C217.365 54.6023 217.157 54.4121 216.876 54.3618C216.596 54.2645 216.389 53.9572 216.255 53.4399C216.167 52.9231 216.007 52.593 215.775 52.4495C215.59 52.2596 215.168 52.2075 214.511 52.2931C213.336 52.5129 212.478 51.799 211.936 50.1515C211.8 49.7748 211.666 49.2809 211.533 48.6698C211.4 48.0587 211.243 47.4708 211.062 46.906C210.704 45.542 210.268 44.81 209.754 44.7098C209.287 44.5634 208.935 44.6059 208.697 44.8373C208.46 45.0688 208.268 45.3945 208.123 45.8146C208.024 46.1884 207.972 46.6331 207.965 47.1487C207.959 47.6174 208 48.1336 208.087 48.6972C208.22 49.2614 208.238 49.7304 208.139 50.1042C208.041 50.478 207.897 50.7809 207.706 51.013C207.563 51.2456 207.396 51.4544 207.206 51.6396C206.828 51.8693 206.588 52.3351 206.486 53.037C206.43 53.7395 206.329 54.3476 206.182 54.8615C205.885 56.1235 205.5 56.9156 205.027 57.2379C204.554 57.5601 204.083 57.7418 203.614 57.7828C203.144 57.8707 202.675 57.8649 202.208 57.7653C201.039 57.5164 200.318 57.0855 200.044 56.4727C199.77 55.9067 199.611 55.4828 199.567 55.201C199.525 54.8723 199.505 54.5674 199.509 54.2861C199.559 54.0055 199.61 53.7014 199.661 53.3739C199.712 53.0464 199.716 52.6714 199.675 52.249C199.68 51.7803 199.594 51.1698 199.416 50.4175C199.238 49.6652 199.132 48.7732 199.098 47.7414L199.05 45.9126C199.053 45.7251 199.22 45.4225 199.554 45.0047C199.888 44.5401 199.988 44.0257 199.854 43.4615C199.768 42.851 199.515 42.4728 199.095 42.3269C198.675 42.1342 198.467 41.9206 198.47 41.6863C198.473 41.4519 198.527 40.8666 198.633 39.9304C198.738 38.9941 198.706 37.8217 198.536 36.4133C198.413 35.0054 198.334 33.7621 198.301 32.6835C198.143 30.3376 197.737 29.0199 197.084 28.7305C196.479 28.3948 196.132 28.0155 196.044 27.5925C195.956 27.1226 195.962 26.607 196.063 26.0457C196.164 25.4844 196.266 24.7825 196.371 23.94C196.522 23.0981 196.673 22.2562 196.824 21.4142C196.976 20.5254 197.103 19.7066 197.206 18.9579C197.356 18.2097 197.456 17.6952 197.507 17.4146C197.557 17.134 197.56 16.8762 197.516 16.6412C197.52 16.36 197.523 16.1022 197.526 15.8678C197.441 15.1167 197.45 14.4605 197.55 13.8992C197.751 12.8235 197.807 12.0742 197.719 11.6512C197.631 11.1813 197.71 10.5025 197.955 9.61489C198.248 8.68097 198.491 8.02769 198.683 7.65505C198.875 7.28242 199.23 7.00556 199.748 6.8245C200.266 6.64343 200.761 6.39177 201.234 6.06951C201.754 5.70096 202.227 5.35526 202.653 5.03241C203.08 4.66269 203.459 4.33926 203.791 4.06212C204.123 3.73811 204.524 3.50871 204.994 3.37393C206.357 3.10963 207.342 3.09845 207.948 3.3404C208.602 3.53605 209.068 3.75281 209.347 3.99067C209.625 4.22853 209.95 4.46697 210.322 4.706C210.741 4.94561 211.161 5.13835 211.581 5.28421C212.048 5.38379 212.469 5.43592 212.844 5.44059C213.828 5.54659 214.412 5.6945 214.597 5.88432C214.829 6.02785 215.086 6.10137 215.368 6.10487ZM209.288 25.6479L209.63 32.0511C209.625 32.4729 209.596 32.8945 209.544 33.3157C209.492 33.6901 209.441 34.0411 209.39 34.3686C209.335 35.0711 209.587 35.4961 210.148 35.6437C210.615 35.7433 210.992 35.6308 211.277 35.3062C211.563 34.9347 211.827 34.4458 212.069 33.8394C212.646 32.6746 212.843 31.927 212.659 31.5966C212.29 31.1232 212.178 30.7233 212.323 30.397C212.515 30.0243 212.875 29.3256 213.404 28.3009C213.979 27.2767 214.388 26.3911 214.632 25.6441C214.923 24.8977 215.003 24.1017 214.873 23.2563C214.743 22.364 214.68 21.7538 214.685 21.4257L214.694 20.6523C214.699 20.2773 214.515 19.9469 214.144 19.661C213.82 19.3288 213.588 19.1618 213.447 19.1601C213.307 19.1115 213.19 19.0866 213.096 19.0854C212.673 19.1739 212.275 19.1455 211.902 19.0002C211.529 18.8081 211.179 18.7334 210.85 18.7762C210.522 18.7721 210.144 18.9783 209.717 19.3949C209.29 19.8115 209.05 20.2539 208.998 20.722C208.945 21.1433 208.939 21.6354 208.979 22.1984C209.193 23.8887 209.295 25.0385 209.288 25.6479ZM229.853 43.6241L229.827 40.0375C229.835 39.3813 229.866 38.7723 229.92 38.2104C229.975 37.6017 229.937 36.8512 229.808 35.9589C229.592 34.4092 229.489 33.2828 229.498 32.5797C229.554 31.8304 229.562 31.2445 229.52 30.8221C229.526 30.3534 229.484 29.9309 229.395 29.5548C229.261 28.9906 228.921 28.0956 228.374 26.87C227.873 25.6449 227.632 24.3293 227.649 22.9232C227.667 21.517 227.986 20.3959 228.605 19.5598C229.178 18.7231 229.4 17.8586 229.271 16.9663C229.141 16.074 229.036 15.1351 228.954 14.1497C228.92 13.1179 228.933 12.0867 228.993 11.0562C229.053 9.9787 229.3 8.95044 229.734 7.9714C230.795 5.5938 232.872 4.47113 235.964 4.6034C237.885 4.6742 239.547 4.8824 240.949 5.22801C242.351 5.57362 243.38 5.72708 244.037 5.68838C244.694 5.64968 245.705 5.42787 247.069 5.02295C249.047 4.29753 250.617 4.36395 251.778 5.22223C252.103 5.46067 252.405 5.65195 252.685 5.79606C253.012 5.89389 253.291 6.06144 253.522 6.29872C254.308 7.1992 254.518 9.14728 254.153 12.143C254.048 13.0323 253.943 13.9217 253.838 14.8111C253.578 16.9174 253.558 18.4876 253.78 19.5217C254.001 20.5558 254.107 21.4712 254.097 22.2681C254.135 23.0186 254.103 23.6979 254.001 24.3061C253.703 25.6618 253.156 26.3348 252.359 26.3248C251.656 26.2692 251.143 26.0519 250.82 25.6728C250.544 25.2475 250.315 24.7993 250.134 24.3282C249.953 23.8103 249.747 23.3624 249.517 22.9845C249.335 22.5603 248.893 22.3439 248.19 22.3351C246.127 22.3094 244.747 22.0813 244.049 21.6507C243.399 21.1738 242.816 20.9087 242.301 20.8554C241.787 20.7553 241.294 20.796 240.823 20.9777C239.834 21.3873 239.238 22.1533 239.036 23.2759C238.882 24.3991 238.776 25.3822 238.718 26.2253C238.661 27.0684 238.651 27.8418 238.69 28.5454C238.763 30.1871 239.056 31.1283 239.569 31.3691C240.129 31.5636 240.597 31.5929 240.974 31.4569C241.351 31.2741 241.729 31.0679 242.107 30.8382C243.241 30.1022 244.394 29.765 245.565 29.8265C246.783 29.8416 247.668 30.3214 248.219 31.2659C248.817 32.2109 249.063 33.1281 248.958 34.0175C248.854 34.86 248.75 35.7025 248.645 36.545C248.588 37.3881 248.484 38.1838 248.334 38.932C247.642 41.8298 246.276 42.3753 244.236 40.5686C241.566 40.3478 239.898 40.6552 239.232 41.4907C239.088 41.7233 238.941 42.2137 238.791 42.9619C238.641 43.7101 238.608 44.5066 238.691 45.3515C238.898 47.5573 239.938 48.7422 241.811 48.9062C243.029 49.0151 244.132 48.8648 245.122 48.4552C246.158 48.0462 246.844 47.5859 247.178 47.0744C247.467 46.5155 247.822 46.2152 248.244 46.1736C248.667 46.0851 249.043 46.0195 249.372 45.9767C249.701 45.887 250.03 45.8442 250.358 45.8483C250.686 45.8524 251.013 45.9034 251.34 46.0012C252.181 46.2929 252.665 46.9553 252.792 47.9882C252.967 49.0217 252.862 49.9579 252.476 50.797C252.091 51.636 251.823 52.4061 251.674 53.1075C251.572 53.7625 251.472 54.2535 251.374 54.5804C251.276 54.9073 250.99 55.3257 250.515 55.8354C250.087 56.2989 249.731 56.6929 249.445 57.0175C249.207 57.3427 248.809 57.2674 248.253 56.7917C247.231 55.9821 245.984 56.4353 244.509 58.1514C244.128 58.6624 243.724 59.0324 243.3 59.2615C242.875 59.4906 242.218 59.5761 241.328 59.5182C240.438 59.4602 239.737 59.2171 239.227 58.7889C238.717 58.3606 238.253 57.9329 237.837 57.5058C237.145 56.6065 235.93 56.2632 234.193 56.476C233.16 56.6038 232.322 56.148 231.679 55.1086C231.54 54.9663 231.426 54.707 231.337 54.3309C231.295 53.9553 231.229 53.5326 231.142 53.0627C230.829 51.84 230.534 51.0628 230.256 50.7312C230.027 50.3533 229.892 49.8829 229.852 49.3198C229.859 48.7574 229.82 48.1709 229.733 47.5604C229.648 46.903 229.583 46.4334 229.54 46.1516C229.497 45.8229 229.525 45.4483 229.624 45.0276C229.77 44.6075 229.846 44.1397 229.853 43.6241Z" fill="url(#paint0_angular)"/>
</g>
<defs>
<filter id="filter0_d" x="0.835022" y="0.610352" width="261.566" height="67.7651" filterUnits="userSpaceOnUse" color-interpolation-filters="sRGB">
<feFlood flood-opacity="0" result="BackgroundImageFix"/>
<feColorMatrix in="SourceAlpha" type="matrix" values="0 0 0 0 0 0 0 0 0 0 0 0 0 0 0 0 0 0 127 0" result="hardAlpha"/>
<feOffset dx="6" dy="6"/>
<feGaussianBlur stdDeviation="1"/>
<feColorMatrix type="matrix" values="0 0 0 0 0.054902 0 0 0 0 0.0509804 0 0 0 0 0.0509804 0 0 0 0.13 0"/>
<feBlend mode="normal" in2="BackgroundImageFix" result="effect1_dropShadow"/>
<feBlend mode="normal" in="SourceGraphic" in2="effect1_dropShadow" result="shape"/>
</filter>
<radialGradient id="paint0_angular" cx="0" cy="0" r="1" gradientUnits="userSpaceOnUse" gradientTransform="translate(127.629 29.5056) rotate(90.7134) scale(124.937 207.089)">
<stop stop-color="#DCDDE7" stop-opacity="0.86"/>
<stop offset="1" stop-color="#DCDDE7" stop-opacity="0.86"/>
</radialGradient>
</defs>
</svg>
